<svg width="286" height="60" viewBox="0 0 286 60" xmlns="http://www.w3.org/2000/svg">
  <text x="0" y="48" font-family="Arial, Helvetica, sans-serif" font-size="52" font-weight="700" fill="#FFFFFF">ВЕБ</text>
  <g transform="translate(118, 9)" fill="#FFFFFF">
    <rect x="0" y="0" width="2" height="2"/>
    <rect x="2" y="0" width="2" height="2"/>
    <rect x="4" y="0" width="2" height="2"/>
    <rect x="6" y="0" width="2" height="2"/>
    <rect x="8" y="0" width="2" height="2"/>
    <rect x="10" y="0" width="2" height="2"/>
    <rect x="12" y="0" width="2" height="2"/>
    <rect x="16" y="0" width="2" height="2"/>
    <rect x="22" y="0" width="2" height="2"/>
    <rect x="24" y="0" width="2" height="2"/>
    <rect x="28" y="0" width="2" height="2"/>
    <rect x="30" y="0" width="2" height="2"/>
    <rect x="32" y="0" width="2" height="2"/>
    <rect x="34" y="0" width="2" height="2"/>
    <rect x="36" y="0" width="2" height="2"/>
    <rect x="38" y="0" width="2" height="2"/>
    <rect x="40" y="0" width="2" height="2"/>
    <rect x="0" y="2" width="2" height="2"/>
    <rect x="12" y="2" width="2" height="2"/>
    <rect x="16" y="2" width="2" height="2"/>
    <rect x="22" y="2" width="2" height="2"/>
    <rect x="24" y="2" width="2" height="2"/>
    <rect x="28" y="2" width="2" height="2"/>
    <rect x="40" y="2" width="2" height="2"/>
    <rect x="0" y="4" width="2" height="2"/>
    <rect x="4" y="4" width="2" height="2"/>
    <rect x="6" y="4" width="2" height="2"/>
    <rect x="8" y="4" width="2" height="2"/>
    <rect x="12" y="4" width="2" height="2"/>
    <rect x="18" y="4" width="2" height="2"/>
    <rect x="22" y="4" width="2" height="2"/>
    <rect x="24" y="4" width="2" height="2"/>
    <rect x="28" y="4" width="2" height="2"/>
    <rect x="32" y="4" width="2" height="2"/>
    <rect x="34" y="4" width="2" height="2"/>
    <rect x="36" y="4" width="2" height="2"/>
    <rect x="40" y="4" width="2" height="2"/>
    <rect x="0" y="6" width="2" height="2"/>
    <rect x="4" y="6" width="2" height="2"/>
    <rect x="6" y="6" width="2" height="2"/>
    <rect x="8" y="6" width="2" height="2"/>
    <rect x="12" y="6" width="2" height="2"/>
    <rect x="18" y="6" width="2" height="2"/>
    <rect x="24" y="6" width="2" height="2"/>
    <rect x="28" y="6" width="2" height="2"/>
    <rect x="32" y="6" width="2" height="2"/>
    <rect x="34" y="6" width="2" height="2"/>
    <rect x="36" y="6" width="2" height="2"/>
    <rect x="40" y="6" width="2" height="2"/>
    <rect x="0" y="8" width="2" height="2"/>
    <rect x="4" y="8" width="2" height="2"/>
    <rect x="6" y="8" width="2" height="2"/>
    <rect x="8" y="8" width="2" height="2"/>
    <rect x="12" y="8" width="2" height="2"/>
    <rect x="16" y="8" width="2" height="2"/>
    <rect x="22" y="8" width="2" height="2"/>
    <rect x="24" y="8" width="2" height="2"/>
    <rect x="28" y="8" width="2" height="2"/>
    <rect x="32" y="8" width="2" height="2"/>
    <rect x="34" y="8" width="2" height="2"/>
    <rect x="36" y="8" width="2" height="2"/>
    <rect x="40" y="8" width="2" height="2"/>
    <rect x="0" y="10" width="2" height="2"/>
    <rect x="12" y="10" width="2" height="2"/>
    <rect x="16" y="10" width="2" height="2"/>
    <rect x="18" y="10" width="2" height="2"/>
    <rect x="20" y="10" width="2" height="2"/>
    <rect x="22" y="10" width="2" height="2"/>
    <rect x="24" y="10" width="2" height="2"/>
    <rect x="28" y="10" width="2" height="2"/>
    <rect x="40" y="10" width="2" height="2"/>
    <rect x="0" y="12" width="2" height="2"/>
    <rect x="2" y="12" width="2" height="2"/>
    <rect x="4" y="12" width="2" height="2"/>
    <rect x="6" y="12" width="2" height="2"/>
    <rect x="8" y="12" width="2" height="2"/>
    <rect x="10" y="12" width="2" height="2"/>
    <rect x="12" y="12" width="2" height="2"/>
    <rect x="16" y="12" width="2" height="2"/>
    <rect x="20" y="12" width="2" height="2"/>
    <rect x="24" y="12" width="2" height="2"/>
    <rect x="28" y="12" width="2" height="2"/>
    <rect x="30" y="12" width="2" height="2"/>
    <rect x="32" y="12" width="2" height="2"/>
    <rect x="34" y="12" width="2" height="2"/>
    <rect x="36" y="12" width="2" height="2"/>
    <rect x="38" y="12" width="2" height="2"/>
    <rect x="40" y="12" width="2" height="2"/>
    <rect x="16" y="14" width="2" height="2"/>
    <rect x="18" y="14" width="2" height="2"/>
    <rect x="20" y="14" width="2" height="2"/>
    <rect x="22" y="14" width="2" height="2"/>
    <rect x="24" y="14" width="2" height="2"/>
    <rect x="0" y="16" width="2" height="2"/>
    <rect x="8" y="16" width="2" height="2"/>
    <rect x="12" y="16" width="2" height="2"/>
    <rect x="16" y="16" width="2" height="2"/>
    <rect x="18" y="16" width="2" height="2"/>
    <rect x="26" y="16" width="2" height="2"/>
    <rect x="32" y="16" width="2" height="2"/>
    <rect x="2" y="18" width="2" height="2"/>
    <rect x="4" y="18" width="2" height="2"/>
    <rect x="8" y="18" width="2" height="2"/>
    <rect x="10" y="18" width="2" height="2"/>
    <rect x="20" y="18" width="2" height="2"/>
    <rect x="22" y="18" width="2" height="2"/>
    <rect x="30" y="18" width="2" height="2"/>
    <rect x="32" y="18" width="2" height="2"/>
    <rect x="34" y="18" width="2" height="2"/>
    <rect x="36" y="18" width="2" height="2"/>
    <rect x="2" y="20" width="2" height="2"/>
    <rect x="4" y="20" width="2" height="2"/>
    <rect x="12" y="20" width="2" height="2"/>
    <rect x="18" y="20" width="2" height="2"/>
    <rect x="26" y="20" width="2" height="2"/>
    <rect x="28" y="20" width="2" height="2"/>
    <rect x="34" y="20" width="2" height="2"/>
    <rect x="8" y="22" width="2" height="2"/>
    <rect x="10" y="22" width="2" height="2"/>
    <rect x="18" y="22" width="2" height="2"/>
    <rect x="22" y="22" width="2" height="2"/>
    <rect x="24" y="22" width="2" height="2"/>
    <rect x="26" y="22" width="2" height="2"/>
    <rect x="34" y="22" width="2" height="2"/>
    <rect x="36" y="22" width="2" height="2"/>
    <rect x="38" y="22" width="2" height="2"/>
    <rect x="40" y="22" width="2" height="2"/>
    <rect x="10" y="24" width="2" height="2"/>
    <rect x="12" y="24" width="2" height="2"/>
    <rect x="18" y="24" width="2" height="2"/>
    <rect x="20" y="24" width="2" height="2"/>
    <rect x="22" y="24" width="2" height="2"/>
    <rect x="26" y="24" width="2" height="2"/>
    <rect x="28" y="24" width="2" height="2"/>
    <rect x="32" y="24" width="2" height="2"/>
    <rect x="34" y="24" width="2" height="2"/>
    <rect x="36" y="24" width="2" height="2"/>
    <rect x="40" y="24" width="2" height="2"/>
    <rect x="16" y="26" width="2" height="2"/>
    <rect x="20" y="26" width="2" height="2"/>
    <rect x="22" y="26" width="2" height="2"/>
    <rect x="24" y="26" width="2" height="2"/>
    <rect x="26" y="26" width="2" height="2"/>
    <rect x="28" y="26" width="2" height="2"/>
    <rect x="30" y="26" width="2" height="2"/>
    <rect x="32" y="26" width="2" height="2"/>
    <rect x="34" y="26" width="2" height="2"/>
    <rect x="40" y="26" width="2" height="2"/>
    <rect x="0" y="28" width="2" height="2"/>
    <rect x="2" y="28" width="2" height="2"/>
    <rect x="4" y="28" width="2" height="2"/>
    <rect x="6" y="28" width="2" height="2"/>
    <rect x="8" y="28" width="2" height="2"/>
    <rect x="10" y="28" width="2" height="2"/>
    <rect x="12" y="28" width="2" height="2"/>
    <rect x="20" y="28" width="2" height="2"/>
    <rect x="22" y="28" width="2" height="2"/>
    <rect x="24" y="28" width="2" height="2"/>
    <rect x="28" y="28" width="2" height="2"/>
    <rect x="36" y="28" width="2" height="2"/>
    <rect x="0" y="30" width="2" height="2"/>
    <rect x="12" y="30" width="2" height="2"/>
    <rect x="18" y="30" width="2" height="2"/>
    <rect x="22" y="30" width="2" height="2"/>
    <rect x="26" y="30" width="2" height="2"/>
    <rect x="30" y="30" width="2" height="2"/>
    <rect x="32" y="30" width="2" height="2"/>
    <rect x="38" y="30" width="2" height="2"/>
    <rect x="0" y="32" width="2" height="2"/>
    <rect x="4" y="32" width="2" height="2"/>
    <rect x="6" y="32" width="2" height="2"/>
    <rect x="8" y="32" width="2" height="2"/>
    <rect x="12" y="32" width="2" height="2"/>
    <rect x="16" y="32" width="2" height="2"/>
    <rect x="22" y="32" width="2" height="2"/>
    <rect x="24" y="32" width="2" height="2"/>
    <rect x="26" y="32" width="2" height="2"/>
    <rect x="30" y="32" width="2" height="2"/>
    <rect x="38" y="32" width="2" height="2"/>
    <rect x="0" y="34" width="2" height="2"/>
    <rect x="4" y="34" width="2" height="2"/>
    <rect x="6" y="34" width="2" height="2"/>
    <rect x="8" y="34" width="2" height="2"/>
    <rect x="12" y="34" width="2" height="2"/>
    <rect x="22" y="34" width="2" height="2"/>
    <rect x="24" y="34" width="2" height="2"/>
    <rect x="26" y="34" width="2" height="2"/>
    <rect x="30" y="34" width="2" height="2"/>
    <rect x="32" y="34" width="2" height="2"/>
    <rect x="34" y="34" width="2" height="2"/>
    <rect x="38" y="34" width="2" height="2"/>
    <rect x="40" y="34" width="2" height="2"/>
    <rect x="0" y="36" width="2" height="2"/>
    <rect x="4" y="36" width="2" height="2"/>
    <rect x="6" y="36" width="2" height="2"/>
    <rect x="8" y="36" width="2" height="2"/>
    <rect x="12" y="36" width="2" height="2"/>
    <rect x="16" y="36" width="2" height="2"/>
    <rect x="22" y="36" width="2" height="2"/>
    <rect x="24" y="36" width="2" height="2"/>
    <rect x="26" y="36" width="2" height="2"/>
    <rect x="32" y="36" width="2" height="2"/>
    <rect x="34" y="36" width="2" height="2"/>
    <rect x="0" y="38" width="2" height="2"/>
    <rect x="12" y="38" width="2" height="2"/>
    <rect x="16" y="38" width="2" height="2"/>
    <rect x="22" y="38" width="2" height="2"/>
    <rect x="26" y="38" width="2" height="2"/>
    <rect x="30" y="38" width="2" height="2"/>
    <rect x="32" y="38" width="2" height="2"/>
    <rect x="36" y="38" width="2" height="2"/>
    <rect x="0" y="40" width="2" height="2"/>
    <rect x="2" y="40" width="2" height="2"/>
    <rect x="4" y="40" width="2" height="2"/>
    <rect x="6" y="40" width="2" height="2"/>
    <rect x="8" y="40" width="2" height="2"/>
    <rect x="10" y="40" width="2" height="2"/>
    <rect x="12" y="40" width="2" height="2"/>
    <rect x="18" y="40" width="2" height="2"/>
    <rect x="20" y="40" width="2" height="2"/>
    <rect x="22" y="40" width="2" height="2"/>
    <rect x="32" y="40" width="2" height="2"/>
    <rect x="36" y="40" width="2" height="2"/>
    <rect x="38" y="40" width="2" height="2"/>
    <rect x="40" y="40" width="2" height="2"/>
  </g>
  <text x="166" y="48" font-family="Arial, Helvetica, sans-serif" font-size="52" font-weight="700" fill="#FFFFFF">ЧЕК</text>
</svg>